{
	"asset":{
		"generator":"Khronos glTF Blender I/O v4.1.63",
		"version":"2.0"
	},
	"extensionsUsed":[
		"KHR_materials_unlit"
	],
	"scene":0,
	"scenes":[
		{
			"name":"Scene",
			"nodes":[
				0,
				1,
				2
			]
		}
	],
	"nodes":[
		{
			"mesh":0,
			"name":"guide_robot"
		},
		{
			"mesh":1,
			"name":"guide_robot.001"
		},
		{
			"mesh":2,
			"name":"replace_plane_99"
		}
	],
	"materials":[
		{
			"emissiveFactor":[
				1,
				1,
				1
			],
			"emissiveTexture":{
				"index":0
			},
			"name":"guide_robot",
			"normalTexture":{
				"index":1
			},
			"pbrMetallicRoughness":{
				"baseColorTexture":{
					"index":2
				},
				"metallicRoughnessTexture":{
					"index":3
				}
			}
		},
		{
			"alphaMode":"BLEND",
			"emissiveFactor":[
				0.010554035194218159,
				0.10621762275695801,
				0.502324640750885
			],
			"name":"robot_glass",
			"normalTexture":{
				"index":4
			},
			"pbrMetallicRoughness":{
				"baseColorFactor":[
					0.800000011920929,
					0.800000011920929,
					0.800000011920929,
					0.5690235495567322
				],
				"metallicFactor":0,
				"roughnessFactor":0
			}
		},
		{
			"extensions":{
				"KHR_materials_unlit":{}
			},
			"name":"replace_plane_99",
			"pbrMetallicRoughness":{
				"baseColorFactor":[
					0.19599416851997375,
					0,
					0.0013297826517373323,
					1
				],
				"metallicFactor":0,
				"roughnessFactor":0.9
			}
		}
	],
	"meshes":[
		{
			"name":"\u7f51\u683c.299",
			"primitives":[
				{
					"attributes":{
						"POSITION":0,
						"NORMAL":1,
						"TEXCOORD_0":2
					},
					"indices":3,
					"material":0
				}
			]
		},
		{
			"name":"\u7f51\u683c.300",
			"primitives":[
				{
					"attributes":{
						"POSITION":4,
						"NORMAL":5,
						"TEXCOORD_0":6
					},
					"indices":7,
					"material":1
				}
			]
		},
		{
			"name":"\u7f51\u683c.303",
			"primitives":[
				{
					"attributes":{
						"POSITION":8,
						"NORMAL":9,
						"TEXCOORD_0":10
					},
					"indices":11,
					"material":2
				}
			]
		}
	],
	"textures":[
		{
			"sampler":0,
			"source":0
		},
		{
			"sampler":0,
			"source":1
		},
		{
			"sampler":0,
			"source":2
		},
		{
			"sampler":0,
			"source":3
		},
		{
			"sampler":0,
			"source":1
		}
	],
	"images":[
		{
			"mimeType":"image/jpeg",
			"name":"robot_em",
			"uri":"robot_em.jpg"
		},
		{
			"mimeType":"image/jpeg",
			"name":"robot_n",
			"uri":"robot_n.jpg"
		},
		{
			"mimeType":"image/jpeg",
			"name":"robot_b",
			"uri":"robot_b.jpg"
		},
		{
			"mimeType":"image/jpeg",
			"name":"robot_m-robot_r",
			"uri":"robot_m-robot_r.jpg"
		}
	],
	"accessors":[
		{
			"bufferView":0,
			"componentType":5126,
			"count":2970,
			"max":[
				0.28825730085372925,
				0.7951691150665283,
				0.2761726975440979
			],
			"min":[
				-0.28825730085372925,
				-0.7960407137870789,
				-0.26846474409103394
			],
			"type":"VEC3"
		},
		{
			"bufferView":1,
			"componentType":5126,
			"count":2970,
			"type":"VEC3"
		},
		{
			"bufferView":2,
			"componentType":5126,
			"count":2970,
			"type":"VEC2"
		},
		{
			"bufferView":3,
			"componentType":5123,
			"count":12246,
			"type":"SCALAR"
		},
		{
			"bufferView":4,
			"componentType":5126,
			"count":204,
			"max":[
				0.1389182209968567,
				0.21680080890655518,
				0.13891825079917908
			],
			"min":[
				-0.1389182209968567,
				0.029125511646270752,
				-0.1389182060956955
			],
			"type":"VEC3"
		},
		{
			"bufferView":5,
			"componentType":5126,
			"count":204,
			"type":"VEC3"
		},
		{
			"bufferView":6,
			"componentType":5126,
			"count":204,
			"type":"VEC2"
		},
		{
			"bufferView":7,
			"componentType":5123,
			"count":960,
			"type":"SCALAR"
		},
		{
			"bufferView":8,
			"componentType":5126,
			"count":4,
			"max":[
				0.1727515608072281,
				0.40341877937316895,
				0.2584756314754486
			],
			"min":[
				-0.1727515608072281,
				-0.05549902468919754,
				0.21832552552223206
			],
			"type":"VEC3"
		},
		{
			"bufferView":9,
			"componentType":5126,
			"count":4,
			"type":"VEC3"
		},
		{
			"bufferView":10,
			"componentType":5126,
			"count":4,
			"type":"VEC2"
		},
		{
			"bufferView":11,
			"componentType":5123,
			"count":6,
			"type":"SCALAR"
		}
	],
	"bufferViews":[
		{
			"buffer":0,
			"byteLength":35640,
			"byteOffset":0,
			"target":34962
		},
		{
			"buffer":0,
			"byteLength":35640,
			"byteOffset":35640,
			"target":34962
		},
		{
			"buffer":0,
			"byteLength":23760,
			"byteOffset":71280,
			"target":34962
		},
		{
			"buffer":0,
			"byteLength":24492,
			"byteOffset":95040,
			"target":34963
		},
		{
			"buffer":0,
			"byteLength":2448,
			"byteOffset":119532,
			"target":34962
		},
		{
			"buffer":0,
			"byteLength":2448,
			"byteOffset":121980,
			"target":34962
		},
		{
			"buffer":0,
			"byteLength":1632,
			"byteOffset":124428,
			"target":34962
		},
		{
			"buffer":0,
			"byteLength":1920,
			"byteOffset":126060,
			"target":34963
		},
		{
			"buffer":0,
			"byteLength":48,
			"byteOffset":127980,
			"target":34962
		},
		{
			"buffer":0,
			"byteLength":48,
			"byteOffset":128028,
			"target":34962
		},
		{
			"buffer":0,
			"byteLength":32,
			"byteOffset":128076,
			"target":34962
		},
		{
			"buffer":0,
			"byteLength":12,
			"byteOffset":128108,
			"target":34963
		}
	],
	"samplers":[
		{
			"magFilter":9729,
			"minFilter":9987
		}
	],
	"buffers":[
		{
			"byteLength":128120,
			"uri":"robot.bin"
		}
	]
}
